<?xml version="1.0" encoding="UTF-8"?>
<svg width="512" height="512" viewBox="0 0 512 512" xmlns="http://www.w3.org/2000/svg">
  <circle cx="256" cy="256" r="248" fill="#1DB954"/>
  <circle cx="256" cy="256" r="230" fill="#191414"/>
  <path d="M128 256C128 185.307 185.307 128 256 128C326.693 128 384 185.307 384 256" stroke="#1DB954" stroke-width="16" stroke-linecap="round"/>
  <path d="M160 256C160 203.07 203.07 160 256 160C308.93 160 352 203.07 352 256" stroke="#1DB954" stroke-width="12" stroke-linecap="round"/>
  <path d="M192 256C192 220.654 220.654 192 256 192C291.346 192 320 220.654 320 256" stroke="#1DB954" stroke-width="10" stroke-linecap="round"/>
  <circle cx="256" cy="256" r="48" fill="#1DB954"/>
  <path d="M244 232L276 256L244 280V232Z" fill="#191414"/>
</svg>
